<?xml version="1.0" encoding="iso-8859-1"?>
<!-- Uploaded to: SVG Repo, www.svgrepo.com, Generator: SVG Repo Mixer Tools -->
<svg height="800px" width="800px" version="1.1" id="Layer_1" xmlns="http://www.w3.org/2000/svg" xmlns:xlink="http://www.w3.org/1999/xlink" 
	 viewBox="0 0 432 432" xml:space="preserve">
<path style="fill:#F69494;" d="M216,16c88,0,160,72,160,160c0,79.2-131.2,209.6-160,236.8C187.2,385.6,56,255.2,56,176
	C56,88,128,16,216,16z M336,168c0-66.4-53.6-120-120-120S96,101.6,96,168s53.6,120,120,120S336,234.4,336,168z"/>
<g>
	<path style="fill:#42210B;" d="M216,0c96.8,0,176,79.2,176,176c0,95.2-164,247.2-170.4,253.6c-1.6,1.6-4,2.4-5.6,2.4
		s-4-0.8-5.6-2.4C204,423.2,40,271.2,40,176C40,79.2,119.2,0,216,0z M376,176c0-88-72-160-160-160S56,88,56,176
		c0,79.2,131.2,209.6,160,236.8C244.8,385.6,376,255.2,376,176z"/>
	<path style="fill:#42210B;" d="M216,48c66.4,0,120,53.6,120,120s-53.6,120-120,120S96,234.4,96,168S149.6,48,216,48z M320,168
		c0-57.6-46.4-104-104-104s-104,46.4-104,104s46.4,104,104,104S320,225.6,320,168z"/>
</g>
<path style="fill:#E94545;" d="M216,64c57.6,0,104,46.4,104,104s-46.4,104-104,104s-104-46.4-104-104S158.4,64,216,64z"/>
<path style="fill:#EE5656;" d="M216,80c48.8,0,88,39.2,88,88s-39.2,88-88,88s-88-39.2-88-88S167.2,80,216,80z"/>
<path style="fill:#42210B;" d="M288,136v48c0,4-4,8-8,8h-32v32c0,4-4,8-8,8h-48c-4,0-8-4-8-8v-32h-32c-4,0-8-4-8-8v-48c0-4,4-8,8-8
	h32V96c0-4,4-8,8-8h48c4,0,8,4,8,8v32h32C284,128,288,132,288,136z M272,176v-32h-32c-4,0-8-4-8-8v-32h-32v32c0,4-4,8-8,8h-32v32h32
	c4,0,8,4,8,8v32h32v-32c0-4,4-8,8-8H272z"/>
<path style="fill:#FFF8EF;" d="M272,144v32h-32c-4,0-8,4-8,8v32h-32v-32c0-4-4-8-8-8h-32v-32h32c4,0,8-4,8-8v-32h32v32c0,4,4,8,8,8
	H272z"/>
</svg>